<svg width="51" height="16" viewBox="0 0 51 16" fill="none" xmlns="http://www.w3.org/2000/svg">
<path fill-rule="evenodd" clip-rule="evenodd" d="M1.77258 2.46392C15.777 14.8843 34.2831 11.0554 48.8687 1.44017C49.1195 1.27549 49.4576 1.34431 49.6223 1.59513C49.787 1.84596 49.7182 2.18401 49.4673 2.34869C34.4738 12.234 15.4468 16.0458 1.05032 3.27716C0.825635 3.07869 0.218383 1.60104 0.218383 1.60104C0.218383 1.60104 1.54701 2.2644 1.77258 2.46392Z" fill="#E7C035"/>
<path fill-rule="evenodd" clip-rule="evenodd" d="M48.8944 2.07513C47.9408 2.1408 46.7449 2.23645 46.6089 2.24335C42.9226 2.4303 39.4049 2.03536 35.8231 1.1127C35.5323 1.03817 35.357 0.740621 35.4315 0.449814C35.5061 0.159007 35.8036 -0.0162586 36.0944 0.0582695C39.5674 0.954104 42.9789 1.33804 46.5546 1.15626C46.763 1.14581 49.4512 0.929121 49.9981 0.926136C50.2224 0.923855 50.35 0.992269 50.3786 1.01127C50.5341 1.1064 50.5955 1.23245 50.6235 1.33812C50.6542 1.45766 50.6568 1.66735 50.5125 1.89666C50.3605 2.13603 49.9254 2.55294 49.8241 2.66705C48.2999 4.39298 46.4485 6.18646 45.076 8.19036C43.7669 10.1013 42.8925 12.2061 43.2502 14.6462C43.294 14.9432 43.0872 15.2198 42.7902 15.2636C42.4932 15.3075 42.2165 15.1007 42.1727 14.8037C41.7734 12.0755 42.7149 9.71128 44.1775 7.57575C45.5422 5.58384 47.3651 3.79283 48.8944 2.07513Z" fill="#E7C035"/>
</svg>
