<svg width="800" height="600" viewBox="0 0 800 600" xmlns="http://www.w3.org/2000/svg" xmlns:xlink="http://www.w3.org/1999/xlink" data-cache="1694784065234">
<style>
path.line-0 {
  stroke-dasharray: 474 479;
  stroke-dashoffset: 474;
  animation: draw-0 2447.372988148958ms ease forwards infinite;
}
@keyframes draw-0 {
  0% { stroke-dashoffset: 474; }
  38.71% { stroke-dashoffset: 0; }
  79.57% { stroke-dashoffset: 0; }
  100.00% { stroke-dashoffset: 474; }
  100% { stroke-dashoffset: 474; }
}
</style><rect x="0" y="0" width="800" height="600" fill="#fff">

</rect><g mask="url(#brush)">
<path d="M312.999,76.5L311.832,76.667C310.666,76.833,308.332,77.167,305.666,77.667C302.999,78.167,299.999,78.833,296.332,80.333C292.666,81.833,288.332,84.167,283.332,87.167C278.332,90.167,272.666,93.833,266.499,98.333C260.332,102.833,253.666,108.167,246.832,114C239.999,119.833,232.999,126.167,225.999,133C218.999,139.833,211.999,147.167,205.666,154.667C199.332,162.167,193.666,169.833,188.499,177.5C183.332,185.167,178.666,192.833,174.666,200.667C170.666,208.5,167.332,216.5,164.666,224.5C161.999,232.5,159.999,240.5,158.832,248.667C157.666,256.833,157.332,265.167,157.166,273.5C156.999,281.833,156.999,290.167,157.332,297.833C157.666,305.5,158.332,312.5,159.499,319.667C160.666,326.833,162.332,334.167,164.332,341C166.332,347.833,168.666,354.167,171.332,360.333C173.999,366.5,176.999,372.5,180.332,378.167C183.666,383.833,187.332,389.167,190.999,393.833C194.666,398.5,198.332,402.5,202.332,406.5C206.332,410.5,210.666,414.5,214.666,418.167C218.666,421.833,222.332,425.167,225.666,428C228.999,430.833,231.999,433.167,234.499,435C236.999,436.833,238.999,438.167,240.666,439.333C242.332,440.5,243.666,441.5,244.999,442.333C246.332,443.167,247.666,443.833,248.332,444.333C248.999,444.833,248.999,445.167,248.999,445.333L248.999,445.5" stroke-width="10" stroke-linecap="round" stroke-linejoin="round" stroke="#000" fill="none" class="line-0">

</path>
</g><mask id="brush">
<rect x="0" y="0" width="100%" height="100%" fill="black">

</rect><path d="M313.00,76.51L297.15,80.26L284.50,87.42L267.70,98.58L247.86,114.58L226.90,133.50L205.96,155.41L189.05,178.27L175.10,201.17L165.18,224.99L159.23,248.80L158.26,273.55L158.26,298.50L160.25,319.38L165.22,341.22L172.18,360.07L181.12,377.94L192.03,393.79L202.89,405.68L215.74,417.70L226.58,427.86L235.37,435.02L241.29,439.06L245.23,442.19L247.12,444.31L249.01,445.50L249.00,445.50L248.99,445.50L246.88,444.69L244.77,442.81L240.70,439.94L234.62,435.98L225.41,429.14L214.26,419.30L201.10,407.32L189.97,395.21L178.88,379.06L169.82,360.93L162.78,341.78L157.75,319.62L155.74,298.50L155.74,273.45L156.77,248.20L162.82,224.01L172.90,199.83L186.95,176.73L204.04,153.59L225.09,131.50L246.13,112.42L266.30,96.42L283.50,85.58L296.84,78.74L313.00,76.49Z" fill="white">

</path>
</mask>
</svg>